<?xml version="1.0" standalone="no"?>
<!DOCTYPE svg PUBLIC "-//W3C//DTD SVG 20010904//EN"
 "http://www.w3.org/TR/2001/REC-SVG-20010904/DTD/svg10.dtd">
<svg version="1.0" xmlns="http://www.w3.org/2000/svg"
 width="120.000000pt" height="120.000000pt" viewBox="0 0 120.000000 120.000000"
 preserveAspectRatio="xMidYMid meet">
<metadata>
Created by potrace 1.11, written by Peter Selinger 2001-2013
</metadata>
<g transform="translate(0.000000,120.000000) scale(0.100000,-0.100000)"
fill="#000000" stroke="none">
<path d="M667 1172 c-16 -17 -27 -21 -47 -16 -58 16 -104 -3 -122 -52 -9 -27
-17 -33 -51 -37 -43 -6 -84 -38 -89 -70 -2 -16 -11 -22 -34 -23 -17 -1 -41 -7
-53 -14 -27 -14 -52 -69 -45 -97 5 -17 0 -22 -28 -27 -38 -7 -72 -57 -66 -97
2 -18 -2 -25 -19 -27 -36 -5 -73 -50 -73 -89 0 -19 4 -43 10 -53 8 -15 6 -20
-8 -25 -21 -6 -42 -45 -42 -76 0 -11 7 -33 15 -50 14 -27 14 -32 0 -51 -29
-42 -13 -103 34 -131 16 -9 32 -13 36 -9 4 4 4 -4 0 -17 -18 -60 -4 -101 45
-126 37 -19 30 -18 61 -7 23 9 27 7 43 -23 28 -52 89 -70 134 -40 19 14 25 14
52 0 41 -21 79 -17 112 14 23 20 32 22 50 14 30 -13 87 2 110 30 10 11 18 33
18 49 0 21 5 28 20 28 50 0 99 49 92 92 -2 11 3 18 13 18 9 0 32 7 51 16 34
16 49 42 53 90 0 8 5 12 11 9 5 -3 25 1 44 10 34 16 56 50 56 85 0 15 7 20 29
20 31 0 80 41 82 69 2 29 -3 56 -12 66 -14 14 -11 23 9 30 39 12 54 87 26 130
-14 22 -14 26 2 49 31 49 -5 135 -58 136 -13 0 -15 6 -10 28 10 37 8 53 -6 79
-23 42 -85 61 -122 38 -6 -3 -14 4 -20 17 -25 61 -86 86 -135 54 -23 -15 -28
-15 -55 -1 -40 21 -86 16 -113 -13z"/>
</g>
</svg>
